<?xml version="1.0" encoding="utf-8"?>
<!-- Generator: Adobe Illustrator 23.0.1, SVG Export Plug-In . SVG Version: 6.00 Build 0)  -->
<svg version="1.1" id="图层_1" xmlns="http://www.w3.org/2000/svg" xmlns:xlink="http://www.w3.org/1999/xlink" x="0px" y="0px"
	 viewBox="0 0 448 512" style="enable-background:new 0 0 448 512;" xml:space="preserve">
<style type="text/css">
	.st0{fill:#0080FF;}
</style>
<path class="st0" d="M448,384c-28,0-31.3-32-74.5-32c-43.4,0-46.8,32-74.8,32c-27.7,0-31.5-32-74.8-32c-42.8,0-47.2,32-74.5,32
	c-28.1,0-31.2-32-74.8-32c-43.5,0-46.7,32-74.8,32v-80c0-26.5,21.5-48,48-48h16V112h64v144h64V112h64v144h64V112h64v144h16
	c26.5,0,48,21.5,48,48V384z M448,512H0v-96c43.4,0,46.8-32,74.8-32c28,0,31.3,32,74.8,32c42.8,0,47.2-32,74.5-32
	c28.1,0,31.2,32,74.8,32c43.4,0,46.8-32,74.8-32c27.5,0,31.3,32,74.5,32V512z M96,96c-17.8,0-32-14.3-32-32c0-31,32-23,32-64
	c12,0,32,29.5,32,56S113.8,96,96,96z M224,96c-17.8,0-32-14.3-32-32c0-31,32-23,32-64c12,0,32,29.5,32,56S241.8,96,224,96z M352,96
	c-17.8,0-32-14.3-32-32c0-31,32-23,32-64c12,0,32,29.5,32,56S369.8,96,352,96z"/>
</svg>
