<?xml version="1.0" encoding="utf-8"?>
<!-- Generator: Adobe Illustrator 23.0.1, SVG Export Plug-In . SVG Version: 6.00 Build 0)  -->
<svg version="1.1" id="图层_1" xmlns="http://www.w3.org/2000/svg" xmlns:xlink="http://www.w3.org/1999/xlink" x="0px" y="0px"
	 viewBox="0 0 576 512" style="enable-background:new 0 0 576 512;" xml:space="preserve">
<style type="text/css">
	.st0{fill:#00CCCC;}
</style>
<path class="st0" d="M402.3,344.9l32-32c5-5,13.7-1.5,13.7,5.7V464c0,26.5-21.5,48-48,48H48c-26.5,0-48-21.5-48-48V112
	c0-26.5,21.5-48,48-48h273.5c7.1,0,10.7,8.6,5.7,13.7l-32,32c-1.5,1.5-3.5,2.3-5.7,2.3H48v352h352V350.5
	C400,348.4,400.8,346.4,402.3,344.9z M558.9,143.1L296.3,405.7l-90.4,10c-26.2,2.9-48.5-19.2-45.6-45.6l10-90.4L432.9,17.1
	c22.9-22.9,59.9-22.9,82.7,0l43.2,43.2C581.7,83.2,581.7,120.3,558.9,143.1L558.9,143.1z M460.1,174L402,115.9L216.2,301.8
	l-7.3,65.3l65.3-7.3L460.1,174z M524.9,94.3l-43.2-43.2c-4.1-4.1-10.8-4.1-14.8,0L436,82l58.1,58.1l30.9-30.9
	C529,105,529,98.4,524.9,94.3z"/>
</svg>
