<?xml version="1.0" encoding="utf-8"?>
<!-- Generator: Adobe Illustrator 23.0.1, SVG Export Plug-In . SVG Version: 6.00 Build 0)  -->
<svg version="1.1" id="图层_1" xmlns="http://www.w3.org/2000/svg" xmlns:xlink="http://www.w3.org/1999/xlink" x="0px" y="0px"
	 viewBox="0 0 512 512" style="enable-background:new 0 0 512 512;" xml:space="preserve">
<style type="text/css">
	.st0{fill:#56A902;}
</style>
<path class="st0" d="M336.2,80c-49.1,0-93.3-32-161.9-32C143,48,116,54.5,93.5,63.2c2.2-6.7,3-13.7,2.1-20.7
	C93.1,19.6,74.2,1.6,51.2,0.1C23.2-1.7,0,20.4,0,48c0,17.8,9.7,33.3,24,41.6V496c0,8.8,7.2,16,16,16h16c8.8,0,16-7.2,16-16v-83.4
	c37.9-17.3,71.3-28.6,127.8-28.6c49.1,0,93.3,32,161.9,32c58.5,0,102-22.6,128.5-40c13.6-8.9,21.7-24,21.7-40.2V95.9
	c0-34.5-35.3-57.8-66.9-44.1C409.2,67.3,371.6,80,336.2,80z M464,336c-21.8,15.4-60.8,32-102.3,32c-59.9,0-102-32-161.9-32
	c-43.4,0-96.4,9.4-127.8,24V128c21.8-15.4,60.8-32,102.3-32c59.9,0,102,32,161.9,32c43.3,0,96.3-17.4,127.8-32V336z"/>
</svg>
