<?xml version="1.0" encoding="utf-8"?>
<!-- Generator: Adobe Illustrator 23.0.1, SVG Export Plug-In . SVG Version: 6.00 Build 0)  -->
<svg version="1.1" id="图层_1" xmlns="http://www.w3.org/2000/svg" xmlns:xlink="http://www.w3.org/1999/xlink" x="0px" y="0px"
	 viewBox="0 0 25.4 32.1" style="enable-background:new 0 0 25.4 32.1;" xml:space="preserve">
<style type="text/css">
	.st0{fill:#9E9D24;}
</style>
<title>hanfu</title>
<path class="st0" d="M1.5,3.7c1.4,0.7,2.6,2.2,3.7,4.5c0.9,1.6,0.5,3.7-0.9,4.9c-0.5,0.4-1.1,0.9-1.9,1.7s-1.6,1.4-1.9,1.7
	c-0.6-0.1-0.5-0.7,0.2-1.8c0.1-0.1,0.3-0.3,0.3-0.4c0.8-0.7,1.5-1.5,2.1-2.4C4.1,10.3,3.8,8.2,2.4,7C1.6,6.3,1,5.5,0.8,4.6
	C0.8,3.9,1,3.6,1.5,3.7z M3.1,16.2c0.1-0.2,0.2-0.2,0.4-0.1s0.2,0.1,0.3,0.3c0.3,0.7,0.3,1.7-0.2,3.2c0,0.4-0.1,0.8-0.2,1.1
	c-0.3,2-0.6,4.1-0.7,6.2c-0.1,2.2-0.5,3.2-1,3.2c-0.3,0-0.5-0.3-0.5-0.8c-0.2-0.8-0.1-2.8,0.3-6v-0.4c0.1-0.6,0.3-1.4,0.5-2.5
	c0.1-0.6,0.2-1.1,0.3-1.7C2.4,17.8,2.6,17,3.1,16.2L3.1,16.2z M3.9,1c2.5,1.2,3.8,4,4,8.3c0.9-0.7,1.3-1.7,1.2-2.8V6.2
	c0-1.1-0.5-2.1-1.2-2.8C7.8,3.2,7.7,3,7.6,2.8C7,2.2,6.5,1.5,6.2,0.7C6.1,0.4,6.1,0.2,6.4,0.1s0.4-0.1,0.7,0C7.8,0.2,8.7,1,9.7,2.5
	c1.5,2.4,1.8,4.7,0.9,6.8c-0.7,1-1.6,1.8-2.6,2.5v0.4c-0.2,1.1-0.4,2.2-0.7,3.2c-0.8,3.1-1,6.4-0.7,9.6c0.5,3.6,0.5,5.8,0.2,6.6v0.1
	c-0.1,0.2-0.3,0.4-0.5,0.4c-0.3,0-0.5-0.2-0.5-0.6c-0.5-1.8-0.8-3.6-1-5.5c0.1,0.2,0.1,0,0-0.6c-0.2-1.9-0.2-3.8,0.2-5.6
	c0.2-1.6,0.5-3.1,0.9-4.6c0.3-0.8,0.5-1.7,0.5-2.5C6.5,9.4,6,6.8,4.7,5.2C4,4,3.5,2.8,3.3,1.5C3.2,1.2,3.5,1,3.9,1L3.9,1z M9.4,14.7
	c0.3,0.2,0.4,1.4,0.2,3.5c-0.3,2.3-0.2,4.6,0.3,6.9c0,0.3,0.1,0.7,0.2,1c0.3,1.2,0.5,2.4,0.5,3.7c-0.2,0.4-0.7,0.5-1,0.3
	c-0.1,0-0.1-0.1-0.2-0.2c-0.7-1.6-1.1-3.3-1.2-5.1c-0.3-2.1-0.5-4.2-0.3-6.3c0.1-1.3,0.4-2.5,0.9-3.7c0.1-0.3,0.3-0.3,0.5-0.1
	C9.2,14.6,9.2,14.6,9.4,14.7L9.4,14.7z M12.4,4H14c0-1.1,0.1-2.3,0.3-3.4c0.1-0.2,0.3-0.4,0.5-0.4c0.3,0,0.7,0.2,0.9,0.4
	c0.5,0.8,0.5,1.7,0.2,2.5v0.4c-0.1,0.1-0.2,0.3-0.2,0.4h4.8c0-0.5-0.1-1.3-0.2-2.4V0.5c-0.1-0.3,0-0.4,0.3-0.4s0.5,0,0.9,0.3
	c0.5,0.6,0.7,1.8,0.7,3.8h1.6c0.4,0,0.8,0.3,0.9,0.7c0,0.6-0.2,0.8-0.7,0.8H22v0.9c-0.1,1.5-1.5,2.6-3,2.5v0.8
	c0.6,0,1.3,0.1,1.9,0.1h1.2c2,0,3,0.8,3,2.5s-1.1,2.6-3.3,2.4c-0.5-0.1-0.9-0.2-1.4-0.1c-0.5-0.1-1.1-0.1-1.6-0.1V16
	c2.3,0.4,4.6,1.3,6.5,2.7c0.1,0.8-0.2,1.1-0.9,1c-0.3-0.1-0.6-0.1-0.9-0.3c-1.5-0.7-3.1-1.2-4.8-1.5v1.8c2.3,0.4,4.6,1.2,6.5,2.5
	c0.2,0.9-0.2,1.4-1.2,1.4c-0.9-0.6-1.8-1-2.8-1.4c-0.5,2.4-0.2,4.8,0.9,7c0.5,1.3,0.5,2.3,0.2,2.8c-0.7,0-1.3-0.8-1.9-2.3
	c-1.1-2.6-1.4-5.4-1.1-8.2c-0.5-0.2-1-0.3-1.6-0.3c-0.5,0-1.1,0.1-1.6,0.3c0.7,2.7,0.4,5.5-0.9,8c-0.9,1.7-1.7,2.3-2.3,2
	c-0.2-0.4,0-1.2,0.7-2.5c1.5-2,1.7-4.6,0.5-6.8L12,23.4c-0.2,0.1-0.5,0.2-0.7,0.3c-0.5,0-0.7-0.2-0.5-0.6c1.7-1.9,4-3.1,6.5-3.5
	v-1.8c-1.6,0.3-3.2,0.8-4.7,1.5c-0.3,0.2-0.7,0.3-1.1,0.4c-0.1,0.1-0.3,0.1-0.3,0c-0.2-0.1-0.3-0.2-0.2-0.4c1.7-1.8,3.9-3,6.3-3.4
	v-1.1c-0.7,0-1.4,0-2.1,0.1c-0.9,0.4-1.9,0.1-2.6-0.6c-0.9-0.4-1.2-1.4-0.9-3.1c0-0.8,0.3-1.2,0.9-1.1c0.6,0,1.2,0,1.7-0.2
	c0.9,0,1.9,0,3-0.1V9.1c-1.3,0.2-2.5-0.7-2.8-2c-0.1-0.1-0.2-0.3-0.2-0.5c-0.1-0.2-0.1-0.4-0.2-0.6c-0.7,0-1.4-0.2-2.1-0.4
	c-0.6-0.1-0.7-0.4-0.3-1C11.6,4.2,11.9,4,12.4,4L12.4,4z M13.1,12.4c0.2,0.8,0.9,1,1.9,0.8h2.3v-1.7c-0.4,0-0.8,0.1-1.2,0.1
	c-0.8,0-1.2,0-1.2,0.1s-0.4,0.1-0.9,0h-0.2C13.4,11.8,13.1,12.1,13.1,12.4L13.1,12.4z M18.4,7.4c1.5,0.3,2.2-0.3,1.9-1.7
	c-1.4,0-2.9,0-4.4,0.1V6C15.9,7.1,16.7,7.6,18.4,7.4L18.4,7.4z M22.2,11.7c-1.1-0.1-2.1-0.2-3.2-0.2v1.7h3.7c0.6,0,0.9-0.2,0.9-0.7
	S23.2,11.7,22.2,11.7L22.2,11.7z"/>
</svg>
