<svg xmlns="http://www.w3.org/2000/svg" viewBox="0 0 120 120"><defs><style>.a{fill:#6bb83f;}</style></defs><title>logo-webblank</title><path class="a" d="M112,4H16A12,12,0,0,0,4,16v96a12,12,0,0,0,12,12h96a12,12,0,0,0,12-12V16A12,12,0,0,0,112,4Zm4.5,100.5a12,12,0,0,1-12,12h-81a12,12,0,0,1-12-12v-81a12,12,0,0,1,12-12h81a12,12,0,0,1,12,12Z" transform="translate(-4 -4)"/><path class="a" d="M41.5,97.8H30.83V56.12H25l7.75-23.75L31.17,30.2h12.5l-5.5,17.7H41.5Zm61.5-53a2.62,2.62,0,0,0-1.29-2,4.11,4.11,0,0,0-1.71-.45H45.25V32.71l2.58,1.94H69.58V32.37L68,30.2H80.17v4.45H103Zm-.92,11.87A2.47,2.47,0,0,0,100.83,55a3.83,3.83,0,0,0-1.66-.46H46.08v-9.7l2.59,1.94h53.41Zm0,12.22A2.43,2.43,0,0,0,100.83,67a4.13,4.13,0,0,0-1.66-.4H46.08V56.69l2.59,2.06h53.41Zm0,1.6V97.8H47.25V73.25l-1.17-2.74ZM91.42,78.27H58V89.92H91.42Z" transform="translate(-4 -4)"/></svg>