<svg xmlns="http://www.w3.org/2000/svg" viewBox="0 0 745.16 168.73"><defs><style>.a{fill:#6bb93f;}.b{fill:#6bb936;}.c{fill:#f39518;}</style></defs><title>logo-web</title><path class="a" d="M328.57,217.91V226H295.79v18.65H284.18V221q.07-10.18,2.31-13.36a15.29,15.29,0,0,1,8.11-6.38q5.31-1.89,14.95-1.9h19v8.07H311c-5.44.09-8.92.46-10.46,1.09-3.08,1-4.67,3.34-4.78,6.92v2.44Z" transform="translate(-48.81 -199.39)"/><path class="a" d="M364.64,224.55q0-3.45-1.68-4.68t-6.72-1.22H337.63V211.6h18.61q5,0,6.92.17a27.38,27.38,0,0,1,3.87.64q9.15,2.85,8.65,13.64v18.58H352.45a78.36,78.36,0,0,1-8.64-.31,12.24,12.24,0,0,1-4.2-1.25,8.83,8.83,0,0,1-4.86-8.21,9.77,9.77,0,0,1,7.08-9.49,36.81,36.81,0,0,1,9.31-.82Zm0,7.06H350.07a5,5,0,0,0-3,.81,2.62,2.62,0,0,0-1.11,2.24,2.31,2.31,0,0,0,1.36,2.24,11.35,11.35,0,0,0,4.65.67h12.68Z" transform="translate(-48.81 -199.39)"/><path class="a" d="M386,208.21v-8.82h11v8.82Zm0,3.39h11v33H386Z" transform="translate(-48.81 -199.39)"/><path class="a" d="M410.84,211.6V199.39h11V211.6h10.21v7.05H421.88v12q0,4.2.91,5.29,1.4,1.62,4.94,1.62h4.36v7.06h-8q-7.16,0-10.21-2.85t-3.05-9.56V218.65h-7V211.6Z" transform="translate(-48.81 -199.39)"/><path class="a" d="M450.62,199.39V211.6h11.29a38.06,38.06,0,0,1,7.86.64,11.37,11.37,0,0,1,4.82,2.28q3.78,2.83,3.79,9.56v20.55h-11V225.84a16.44,16.44,0,0,0-.29-3.76,3.89,3.89,0,0,0-1.19-1.94c-1.1-.94-3.18-1.44-6.26-1.49h-9v26h-11V199.39Z" transform="translate(-48.81 -199.39)"/><path class="a" d="M502.51,223.06v8.14H483.32v-8.14Z" transform="translate(-48.81 -199.39)"/><path class="a" d="M521.7,223.06v8.14H502.51v-8.14Z" transform="translate(-48.81 -199.39)"/><path class="a" d="M521.94,244.63l22.73-45.24H558.1l22.73,45.24H567.16l-5.36-10.45H541l-5.36,10.45Zm29.49-34.32-7.83,15.8h15.65Z" transform="translate(-48.81 -199.39)"/><path class="a" d="M628.51,236.56v8.07H609.32a54.14,54.14,0,0,1-8.31-.48q-10.14-1.62-14.42-9.29a26.48,26.48,0,0,1-2.8-12.75q0-9.09,4.29-14.78a17.81,17.81,0,0,1,8.36-6,40.18,40.18,0,0,1,13.46-1.9h18.61v8.07H611.22q-7.83,0-11.45,3.46-3,2.85-3,10.31,0,10,4.7,13.16c2.19,1.44,5.63,2.17,10.29,2.17Z" transform="translate(-48.81 -199.39)"/><path class="a" d="M295,322.74h-8.78V292.49h-4.8l6.38-17.24-1.31-1.58h10.3l-4.53,12.85H295Zm50.66-38.46a1.92,1.92,0,0,0-1.07-1.41,3.71,3.71,0,0,0-1.41-.33H298.11v-7.05l2.13,1.41h17.91v-1.65l-1.3-1.58h10v3.23h18.81Zm-.76,8.62a1.84,1.84,0,0,0-1-1.24,3.45,3.45,0,0,0-1.37-.33H298.8v-7.05l2.13,1.41h44Zm0,8.87a1.82,1.82,0,0,0-1-1.37,3.92,3.92,0,0,0-1.37-.29H298.8V292.9l2.13,1.49h44Zm0,1.16v19.81H299.76V304.92l-1-2Zm-8.78,5.64H308.61V317h27.53Z" transform="translate(-48.81 -199.39)"/><path class="a" d="M378.14,306.66q-4-2.24-4-8.08t4.05-8.41a6.74,6.74,0,0,1,8,.16q4,2.75,3.74,8.42t-4,7.91A7.34,7.34,0,0,1,378.14,306.66Z" transform="translate(-48.81 -199.39)"/><path class="a" d="M471.07,323.16h-8.86l-5.69-14.09h-24l-5.76,14.09h-8.85l15.37-36.56-1.3-1.66h23.33Zm-36.24-19.9h19.28L449,290.66h-9Z" transform="translate(-48.81 -199.39)"/><path class="a" d="M520.41,324.81a1.86,1.86,0,0,0-1.06-1.32,3.75,3.75,0,0,0-1.41-.33H475.05V286.52l-1.24-1.66h46.6v7.46a1.91,1.91,0,0,0-1.06-1.41,3.75,3.75,0,0,0-1.41-.33H484v26.77h36.44Z" transform="translate(-48.81 -199.39)"/><path class="a" d="M553.49,298.62a1.75,1.75,0,0,0-1-1.28,3.71,3.71,0,0,0-1.37-.29h-9.54l-6.45,19.06,9.47-.75-2.33-12.43h10l2.06,11.69h.07V315l1.3,7.38h-9.75l-.27-1.49-20.87,1.49v-5.55l6.59-19.81h-6.65v-7.13l2.12,1.41h26.7Zm-1-17.32a2.06,2.06,0,0,0-1.1-1.33,3.45,3.45,0,0,0-1.37-.33H526.38v-7.13l2.13,1.41h24Zm13.31-8h9.41l-.69,5h13v44.35h-8.78v-.09h-4l-2.13,1.41v-7h6.11V283.87h-4.94l-5.15,38.71-9.33-.09h-2.27v-7l2.13,1.41H560l4.39-33.07h-9.06v-7.05l2.2,1.41h7.62Z" transform="translate(-48.81 -199.39)"/><path class="a" d="M610.94,286.35h-7.83l4,11.77H598l-3.84-11-1.44-1.66h8.65l-3.5-10.19-1.37-1.66h10.15Zm-6.59,36.31H595l6-18L599.2,303h11.67ZM656.65,291v13.67H614.3V292.9l-1-1.9Zm.06,15.5v9.69L644.5,319l3.15.75h7.28l1.78-1.25v4.23H642.78l-7.34-1.66-7.28,1.66h-14v-4.23l1.86,1.25h7.27l3.09-.75-12.22-2.82v-3.81h6.66v.83l14.69,3.56,14.62-3.56v-2.07h-36v-6.05L616,306.5Zm-1.23-32.83v15.5H615.74V275.74l-1.1-2.07Zm-22.1,20.14h-6.73v.92h-4.73v6h4.73v1.49h6.73v-1.49h4.46v1.49h6.93v-1.49h4.33v-6h-4.33v-.92h-6.93v.92h-4.46Zm14.34-16.41H623.84v1.91h21.21v5.22a1.84,1.84,0,0,0-1-1.37,4,4,0,0,0-1.38-.29h-18.8V285h23.88Zm-21.07,23.38h6.73v-6h-6.73Zm11.19,0h6.93v-6h-6.93Z" transform="translate(-48.81 -199.39)"/><path class="a" d="M704.28,322.24H691.37v-7.12l2,1.41H697l4.8-14.84h-9.95v-7.05l2.2,1.41h9.54l2.81-8.87H692v-7l.28.25a1.85,1.85,0,0,0-1-1.17,4.66,4.66,0,0,0-1.38-.24H687.6v28.43l4.39-.75v8.62a1.8,1.8,0,0,0-1.06-1.37,2.35,2.35,0,0,0-1.41-.12l-1.92.33v8h-8.72v-6.55l-17.57,2.9v-8.28l2.2,1.24,1.23-.17V279h-3.08v-6.3l2.12,1.24h28.55v6.47l1.93,1.16h3.15l-.68-5.72-1.1-1.83h9.19l1,7.55h7.62l1.1-7.63h9.27l-1.17,2.32-.69,5.31h3.37v7.29a2.1,2.1,0,0,0-1.14-1.33,3.66,3.66,0,0,0-1.4-.33h-8.38l-2.54,8.87h13.25v7.3A2,2,0,0,0,724,302a4.06,4.06,0,0,0-1.44-.29h-8.51l6.25,14.75h5.07v7.3a1.88,1.88,0,0,0-1-1.25,3.15,3.15,0,0,0-1.27-.33h-9.27l-5.42-14.26Zm-30.75-36.55h5.35V279h-5.35Zm0,11.19h5.35v-6.13h-5.35Zm0,12.93,5.35-.91v-6.8h-5.35Z" transform="translate(-48.81 -199.39)"/><path class="a" d="M794,323.24a1.84,1.84,0,0,0-1.07-1.16,3.66,3.66,0,0,0-1.4-.33H729.94v-7.13l2.13,1.41h1.1V301.77l2.13,1.41h56.48V316H794Zm-35.69-49.57v27.69h-25v-26L732,273.67ZM740.93,316h9.26V308.9h-9.26Zm.48-31.58h8.64v-5.14h-8.64Zm0,5.72v5.55h8.64v-5.55h-8.64ZM758.08,316h9V308.9h-9Zm33.7-42.94v28.85h-10l1.72-2.08V278.73H769.61v4h12.84V290a1.81,1.81,0,0,0-1.07-1.37,4.06,4.06,0,0,0-1.33-.29H769.61v3.07h12.84v7.29a1.75,1.75,0,0,0-1.07-1.28,4.06,4.06,0,0,0-1.33-.29H769.61v4.64h-8.16v-27l-1.31-1.66ZM774.9,316H784V308.9H774.9Z" transform="translate(-48.81 -199.39)"/><path class="b" d="M158.56,200.5,49.26,321.6c-1.3,1.44.38,3.21,3,3.21h5.76a4.16,4.16,0,0,0,3.05-1.12l42.82-48.64h48.83v47.6c0,1.2,1.56,2.16,3.47,2.16h5.36c1.92,0,3.48-1,3.48-2.16V201.56C165.06,199.33,160.31,198.56,158.56,200.5ZM152.75,228v39.23h-42L146.24,227C150.79,221.8,153,221.61,152.75,228Z" transform="translate(-48.81 -199.39)"/><path class="c" d="M272.05,223.76V203.57c0-2.31-2.32-4.18-5.2-4.18H181.44c-2.87,0-5.2,1.87-5.2,4.18V320.63c0,2.31,2.33,4.18,5.2,4.18h85.41c2.88,0,5.2-1.87,5.2-4.18V300.55c0-2.35-2.4-4.24-5.32-4.18h0c-2.82.05-5.08,1.91-5.08,4.18v11.93c0,2.31-2.32,4.18-5.2,4.18H192c-2.87,0-5.2-1.87-5.2-4.18V213.57c0-2.31,2.33-4.18,5.2-4.18H256c2.87,0,5.2,1.87,5.2,4.18v10.19c0,2.3,2.32,4.17,5.19,4.18h.51C269.72,227.94,272.05,226.07,272.05,223.76Z" transform="translate(-48.81 -199.39)"/><path class="c" d="M55.58,347.59H48.81V344.2H67.16v3.39h-7V363.2H55.58Z" transform="translate(-48.81 -199.39)"/><path class="c" d="M73.67,344.2v5.12H78a13.41,13.41,0,0,1,3,.27,4.22,4.22,0,0,1,1.87,1,4.91,4.91,0,0,1,1.47,4v8.63H80.15v-7.89a8.07,8.07,0,0,0-.11-1.58,1.72,1.72,0,0,0-.46-.82,3.74,3.74,0,0,0-2.43-.62H73.67V363.2H69.4v-19Z" transform="translate(-48.81 -199.39)"/><path class="c" d="M101.12,354.77v3h-9a2.42,2.42,0,0,0,1,1.94,5.33,5.33,0,0,0,2.8.57h5.21v3H95.44a12.46,12.46,0,0,1-3-.3,7.18,7.18,0,0,1-2.19-1,6.65,6.65,0,0,1-2.84-5.84,6.81,6.81,0,0,1,1.5-4.39,5.7,5.7,0,0,1,2.46-1.83,10.91,10.91,0,0,1,3.77-.54h6v3H95.44a4.28,4.28,0,0,0-2.46.52,2.69,2.69,0,0,0-.86,2Z" transform="translate(-48.81 -199.39)"/><path class="c" d="M131.27,354.77a2.42,2.42,0,0,0-.65-2,4.56,4.56,0,0,0-2.6-.51h-7.21v-3H128c1.3,0,2.19,0,2.68.07a9.17,9.17,0,0,1,1.5.28q3.54,1.18,3.35,5.72v7.81h-9a27.69,27.69,0,0,1-3.35-.13,4.54,4.54,0,0,1-1.63-.53,3.77,3.77,0,0,1-1.88-3.44,4.31,4.31,0,0,1,.75-2.5,3.7,3.7,0,0,1,2-1.49,13.34,13.34,0,0,1,3.61-.34Zm0,3h-5.65a1.82,1.82,0,0,0-1.16.34,1.13,1.13,0,0,0-.43.94,1,1,0,0,0,.53.94,4.05,4.05,0,0,0,1.8.29h4.91Z" transform="translate(-48.81 -199.39)"/><path class="c" d="M139.54,349.32h8.23a12,12,0,0,1,2.83.25,4.86,4.86,0,0,1,1.77.86,5.18,5.18,0,0,1,1.62,4.22v8.55h-4.27v-9a1.91,1.91,0,0,0-.51-1.48,2.55,2.55,0,0,0-1.69-.45h-3.71V363.2h-4.27Z" transform="translate(-48.81 -199.39)"/><path class="c" d="M158,347.9v-3.7h4.28v3.7Zm0,1.42h4.28V363.2H158Z" transform="translate(-48.81 -199.39)"/><path class="c" d="M166.47,349.32h15.7a14,14,0,0,1,3.26.29,4.22,4.22,0,0,1,1.88,1,5,5,0,0,1,1.4,3.76v8.83h-4.27V355a6.36,6.36,0,0,0-.1-1.39,1.31,1.31,0,0,0-.45-.71,3,3,0,0,0-2-.57h-2.26V363.2h-4.28V352.29h-4.59V363.2h-4.28Z" transform="translate(-48.81 -199.39)"/><path class="c" d="M205.4,354.77v3h-9a2.47,2.47,0,0,0,1,1.94,5.37,5.37,0,0,0,2.81.57h5.2v3h-5.68a12.37,12.37,0,0,1-3-.3,7.18,7.18,0,0,1-2.19-1,6.65,6.65,0,0,1-2.84-5.84,6.81,6.81,0,0,1,1.5-4.39,5.7,5.7,0,0,1,2.46-1.83,10.89,10.89,0,0,1,3.76-.54h6v3h-5.68a4.22,4.22,0,0,0-2.45.52,2.74,2.74,0,0,0-.87,2Z" transform="translate(-48.81 -199.39)"/><path class="c" d="M235.56,354.77a2.42,2.42,0,0,0-.65-2,4.6,4.6,0,0,0-2.61-.51h-7.21v-3h7.21c1.3,0,2.2,0,2.69.07a9.57,9.57,0,0,1,1.5.28c2.36.79,3.47,2.7,3.35,5.72v7.81h-9a27.58,27.58,0,0,1-3.35-.13,4.54,4.54,0,0,1-1.63-.53A3.75,3.75,0,0,1,224,359.1a4.31,4.31,0,0,1,.75-2.5,3.7,3.7,0,0,1,2-1.49,13.29,13.29,0,0,1,3.61-.34Zm0,3h-5.65a1.78,1.78,0,0,0-1.16.34,1.13,1.13,0,0,0-.43.94,1,1,0,0,0,.52.94,4.07,4.07,0,0,0,1.81.29h4.91Z" transform="translate(-48.81 -199.39)"/><path class="c" d="M243.82,349.32h8.24a11.89,11.89,0,0,1,2.82.25,4.71,4.71,0,0,1,1.77.86,5.15,5.15,0,0,1,1.63,4.22v8.55H254v-9a1.91,1.91,0,0,0-.51-1.48,2.53,2.53,0,0,0-1.69-.45h-3.7V363.2h-4.28Z" transform="translate(-48.81 -199.39)"/><path class="c" d="M272.7,349.32V344.2H277v19h-7.34a13.55,13.55,0,0,1-3.38-.32,6.59,6.59,0,0,1-4.06-3,7,7,0,0,1-.92-3.7,6.46,6.46,0,0,1,2.68-5.53,7.78,7.78,0,0,1,4.75-1.31Zm0,10.92v-7.95h-3.09a3.68,3.68,0,0,0-4,3.87,3.77,3.77,0,0,0,1.53,3.39,4.43,4.43,0,0,0,2.49.69Z" transform="translate(-48.81 -199.39)"/><path class="c" d="M310.07,349.32v3H305c-1.73,0-2.92.34-3.58,1a4.08,4.08,0,0,0-.95,3,3.59,3.59,0,0,0,1.56,3.24,4.23,4.23,0,0,0,1.39.56,11.05,11.05,0,0,0,2.09.16h4.59v3h-5.84a12.79,12.79,0,0,1-3.73-.43,5.85,5.85,0,0,1-2.43-1.48,6.84,6.84,0,0,1-2-5.07,6.51,6.51,0,0,1,2.4-5.53,6,6,0,0,1,2.29-1.05,15.72,15.72,0,0,1,3.48-.32Z" transform="translate(-48.81 -199.39)"/><path class="c" d="M320.51,349.12q4.31,0,6.35,2.23a7.19,7.19,0,0,1,1.88,5.1,6.37,6.37,0,0,1-2.36,5.18,9.14,9.14,0,0,1-5.94,1.77,8.75,8.75,0,0,1-6.09-2,7.37,7.37,0,0,1-.1-10.08A8.6,8.6,0,0,1,320.51,349.12Zm0,2.91c-2.57,0-3.86,1.43-3.86,4.27a4.55,4.55,0,0,0,.64,2.65,3.65,3.65,0,0,0,3.25,1.54q3.8,0,3.8-4.24C324.37,353.47,323.09,352.07,320.54,352Z" transform="translate(-48.81 -199.39)"/><path class="c" d="M331.9,349.32h15.7a14,14,0,0,1,3.26.29,4.22,4.22,0,0,1,1.88,1,5,5,0,0,1,1.4,3.76v8.83h-4.27V355a7.07,7.07,0,0,0-.1-1.39,1.31,1.31,0,0,0-.45-.71,3,3,0,0,0-2-.57h-2.26V363.2h-4.28V352.29h-4.59V363.2H331.9Z" transform="translate(-48.81 -199.39)"/><path class="c" d="M358.13,347.9v-3.7h4.28v3.7Zm0,1.42h4.28V363.2h-4.28Z" transform="translate(-48.81 -199.39)"/><path class="c" d="M379.61,349.32v3H374.5q-2.58,0-3.57,1a4.08,4.08,0,0,0-1,3,3.59,3.59,0,0,0,1.56,3.24,4.32,4.32,0,0,0,1.39.56,11.13,11.13,0,0,0,2.09.16h4.6v3h-5.84a12.87,12.87,0,0,1-3.74-.43,5.82,5.82,0,0,1-2.42-1.48,6.84,6.84,0,0,1-2-5.07,6.53,6.53,0,0,1,2.39-5.53,6,6,0,0,1,2.3-1.05,15.6,15.6,0,0,1,3.48-.32Z" transform="translate(-48.81 -199.39)"/><path class="c" d="M403.09,363.2h-4.27v-19h4.27Z" transform="translate(-48.81 -199.39)"/><path class="c" d="M420,354.77v3h-9a2.42,2.42,0,0,0,1,1.94,5.35,5.35,0,0,0,2.81.57H420v3h-5.68a12.46,12.46,0,0,1-3-.3,7.24,7.24,0,0,1-2.18-1,6.63,6.63,0,0,1-2.84-5.84,6.81,6.81,0,0,1,1.5-4.39,5.73,5.73,0,0,1,2.45-1.83,11,11,0,0,1,3.77-.54h6v3h-5.68a4.28,4.28,0,0,0-2.46.52,2.73,2.73,0,0,0-.86,2Z" transform="translate(-48.81 -199.39)"/><path class="c" d="M434.21,354.77a2.39,2.39,0,0,0-.66-2,4.54,4.54,0,0,0-2.6-.51h-7.21v-3H431c1.3,0,2.19,0,2.68.07a9.17,9.17,0,0,1,1.5.28c2.37.79,3.48,2.7,3.36,5.72v7.81h-9a27.58,27.58,0,0,1-3.35-.13,4.47,4.47,0,0,1-1.63-.53,3.76,3.76,0,0,1-1.89-3.44,4.31,4.31,0,0,1,.75-2.5,3.72,3.72,0,0,1,2-1.49,13.2,13.2,0,0,1,3.6-.34Zm0,3h-5.65a1.78,1.78,0,0,0-1.16.34,1.14,1.14,0,0,0-.44.94,1,1,0,0,0,.53.94,4.05,4.05,0,0,0,1.8.29h4.92Z" transform="translate(-48.81 -199.39)"/><path class="c" d="M457.38,349.32v13.79a6.36,6.36,0,0,1-.31,2.08,4.21,4.21,0,0,1-.87,1.54,3.8,3.8,0,0,1-1.78,1.1,11.45,11.45,0,0,1-3,.3h-8.52v-3h7.94a3,3,0,0,0,1.84-.38,2.12,2.12,0,0,0,.43-1.58h-3.92a11.33,11.33,0,0,1-3.12-.36,6.06,6.06,0,0,1-2.21-1.18,6.67,6.67,0,0,1-2.33-5.41,6.27,6.27,0,0,1,2.84-5.73,6.91,6.91,0,0,1,2.15-.93,12.83,12.83,0,0,1,2.89-.27Zm-4.28,3h-3.54q-3.71,0-3.7,4a4,4,0,0,0,1,2.94,3.93,3.93,0,0,0,2.92,1h3.32Z" transform="translate(-48.81 -199.39)"/><path class="c" d="M471.7,360.24V349.32H476V363.2h-8.42a12.58,12.58,0,0,1-2.81-.24,4.35,4.35,0,0,1-1.76-.87,5.16,5.16,0,0,1-1.62-4.25v-8.52h4.24v8.92a1.93,1.93,0,0,0,.56,1.47,2.1,2.1,0,0,0,1.51.53Z" transform="translate(-48.81 -199.39)"/><path class="c" d="M492.86,354.77v3h-9a2.47,2.47,0,0,0,1,1.94,5.37,5.37,0,0,0,2.81.57h5.2v3h-5.68a12.37,12.37,0,0,1-3-.3,7.18,7.18,0,0,1-2.19-1,6.65,6.65,0,0,1-2.84-5.84,6.81,6.81,0,0,1,1.5-4.39,5.7,5.7,0,0,1,2.46-1.83,10.85,10.85,0,0,1,3.76-.54h6v3h-5.68a4.22,4.22,0,0,0-2.45.52,2.74,2.74,0,0,0-.87,2Z" transform="translate(-48.81 -199.39)"/><path class="c" d="M519.48,349.12q4.31,0,6.35,2.23a7.19,7.19,0,0,1,1.88,5.1,6.37,6.37,0,0,1-2.36,5.18,9.14,9.14,0,0,1-5.94,1.77,8.75,8.75,0,0,1-6.09-2,6.59,6.59,0,0,1-2-5.24,6.53,6.53,0,0,1,1.94-4.84A8.6,8.6,0,0,1,519.48,349.12Zm0,2.91c-2.58,0-3.86,1.43-3.86,4.27a4.55,4.55,0,0,0,.64,2.65,3.65,3.65,0,0,0,3.25,1.54q3.8,0,3.8-4.24C523.34,353.47,522.06,352.07,519.51,352Z" transform="translate(-48.81 -199.39)"/><path class="c" d="M532.14,352.29h-2.77v-3h2.77v-.82a4.39,4.39,0,0,1,1.07-3.28,4.93,4.93,0,0,1,3.47-1h3.73v3h-2.17c-1.23,0-1.84.47-1.82,1.54v.62h4v3h-4V363.2h-4.28Z" transform="translate(-48.81 -199.39)"/><path class="c" d="M560.1,349.32V344.2h4.27v5.12h4v3h-4v5a4.2,4.2,0,0,0,.36,2.22,2.3,2.3,0,0,0,1.91.69h1.69v3h-3.09a5.42,5.42,0,0,1-4-1.2,5.6,5.6,0,0,1-1.18-4v-5.69h-2.71v-3Z" transform="translate(-48.81 -199.39)"/><path class="c" d="M575.51,344.2v5.12h4.37a13.41,13.41,0,0,1,3,.27,4.22,4.22,0,0,1,1.87,1,4.91,4.91,0,0,1,1.47,4v8.63H582v-7.89a8.07,8.07,0,0,0-.11-1.58,1.72,1.72,0,0,0-.46-.82,3.74,3.74,0,0,0-2.43-.62h-3.48V363.2h-4.27v-19Z" transform="translate(-48.81 -199.39)"/><path class="c" d="M603,354.77v3h-9a2.42,2.42,0,0,0,1,1.94,5.33,5.33,0,0,0,2.8.57H603v3h-5.68a12.46,12.46,0,0,1-3-.3,7.18,7.18,0,0,1-2.19-1,6.65,6.65,0,0,1-2.84-5.84,6.81,6.81,0,0,1,1.5-4.39,5.7,5.7,0,0,1,2.46-1.83,10.91,10.91,0,0,1,3.77-.54h6v3h-5.68a4.28,4.28,0,0,0-2.46.52,2.69,2.69,0,0,0-.86,2Z" transform="translate(-48.81 -199.39)"/><path class="c" d="M622.39,347.9v-3.7h4.28v3.7Zm0,1.42h4.28V363.2h-4.28Z" transform="translate(-48.81 -199.39)"/><path class="c" d="M630.88,349.32h8.23a12,12,0,0,1,2.83.25,4.86,4.86,0,0,1,1.77.86,5.18,5.18,0,0,1,1.62,4.22v8.55h-4.27v-9a1.91,1.91,0,0,0-.51-1.48,2.55,2.55,0,0,0-1.69-.45h-3.71V363.2h-4.27Z" transform="translate(-48.81 -199.39)"/><path class="c" d="M650.6,352.29h-2.78v-3h2.78v-.82a4.39,4.39,0,0,1,1.07-3.28,4.88,4.88,0,0,1,3.46-1h3.73v3h-2.17c-1.23,0-1.84.47-1.82,1.54v.62h4v3h-4V363.2H650.6Z" transform="translate(-48.81 -199.39)"/><path class="c" d="M668.63,349.12q4.3,0,6.35,2.23a7.19,7.19,0,0,1,1.88,5.1,6.34,6.34,0,0,1-2.36,5.18,9.13,9.13,0,0,1-5.94,1.77,8.75,8.75,0,0,1-6.09-2,7.37,7.37,0,0,1-.1-10.08A8.61,8.61,0,0,1,668.63,349.12Zm0,2.91c-2.57,0-3.86,1.43-3.86,4.27a4.55,4.55,0,0,0,.64,2.65,3.65,3.65,0,0,0,3.25,1.54q3.79,0,3.8-4.24C672.49,353.47,671.21,352.07,668.66,352Z" transform="translate(-48.81 -199.39)"/><path class="c" d="M680,349.32h6.3a13.69,13.69,0,0,1,3,.25,4.26,4.26,0,0,1,1.77.81,3.07,3.07,0,0,1,1,1.42,8.12,8.12,0,0,1,.29,2.45v1.34h-4.08v-.74a2.75,2.75,0,0,0-.58-2,3.27,3.27,0,0,0-2.2-.54H684.3V363.2H680Z" transform="translate(-48.81 -199.39)"/><path class="c" d="M695,349.32h15.7a13.93,13.93,0,0,1,3.25.29,4.17,4.17,0,0,1,1.88,1,5,5,0,0,1,1.41,3.76v8.83h-4.28V355a7.29,7.29,0,0,0-.09-1.39,1.44,1.44,0,0,0-.45-.71,3.05,3.05,0,0,0-2-.57H708.1V363.2h-4.27V352.29h-4.6V363.2H695Z" transform="translate(-48.81 -199.39)"/><path class="c" d="M731.91,354.77a2.39,2.39,0,0,0-.66-2,4.54,4.54,0,0,0-2.6-.51h-7.21v-3h7.21c1.3,0,2.2,0,2.69.07a9.57,9.57,0,0,1,1.5.28c2.36.79,3.47,2.7,3.35,5.72v7.81h-9a27.58,27.58,0,0,1-3.35-.13,4.54,4.54,0,0,1-1.63-.53,3.75,3.75,0,0,1-1.88-3.44,4.3,4.3,0,0,1,.74-2.5,3.72,3.72,0,0,1,2-1.49,13.29,13.29,0,0,1,3.61-.34Zm0,3h-5.65a1.78,1.78,0,0,0-1.16.34,1.13,1.13,0,0,0-.43.94,1,1,0,0,0,.52.94,4.05,4.05,0,0,0,1.8.29h4.92Z" transform="translate(-48.81 -199.39)"/><path class="c" d="M741.32,349.32V344.2h4.28v5.12h4v3h-4v5a4.34,4.34,0,0,0,.35,2.22,2.31,2.31,0,0,0,1.92.69h1.69v3h-3.1a5.38,5.38,0,0,1-4-1.2,5.6,5.6,0,0,1-1.19-4v-5.69h-2.71v-3Z" transform="translate(-48.81 -199.39)"/><path class="c" d="M752.46,347.9v-3.7h4.28v3.7Zm0,1.42h4.28V363.2h-4.28Z" transform="translate(-48.81 -199.39)"/><path class="c" d="M768.13,349.12q4.3,0,6.35,2.23a7.19,7.19,0,0,1,1.88,5.1,6.34,6.34,0,0,1-2.36,5.18,9.12,9.12,0,0,1-5.93,1.77,8.76,8.76,0,0,1-6.1-2,7.37,7.37,0,0,1-.1-10.08A8.61,8.61,0,0,1,768.13,349.12Zm0,2.91c-2.57,0-3.86,1.43-3.86,4.27a4.55,4.55,0,0,0,.64,2.65,3.66,3.66,0,0,0,3.25,1.54q3.79,0,3.8-4.24C772,353.47,770.71,352.07,768.16,352Z" transform="translate(-48.81 -199.39)"/><path class="c" d="M779.52,349.32h8.24a11.89,11.89,0,0,1,2.82.25,4.71,4.71,0,0,1,1.77.86,5.15,5.15,0,0,1,1.63,4.22v8.55H789.7v-9a1.91,1.91,0,0,0-.51-1.48,2.53,2.53,0,0,0-1.69-.45h-3.7V363.2h-4.28Z" transform="translate(-48.81 -199.39)"/></svg>