<svg xmlns="http://www.w3.org/2000/svg" viewBox="0 0 8.8 9.7"><defs><style>.a{fill:#ed317f;}</style></defs><title>lolita</title><path class="a" d="M37.44,54.65V46.29h1v8.43c0,.33.13.46.3.46a.79.79,0,0,0,.23,0l.14.76a1.73,1.73,0,0,1-.59.08C37.75,56,37.44,55.51,37.44,54.65Z" transform="translate(-37.44 -46.29)"/><path class="a" d="M40.28,52.61c0-2.17,1.39-3.42,3-3.42s3,1.25,3,3.42a3,3,0,1,1-6,0Zm5,0c0-1.55-.82-2.59-2-2.59s-2,1-2,2.59.8,2.57,2,2.57S45.24,54.15,45.24,52.61Z" transform="translate(-37.44 -46.29)"/></svg>