<?xml version="1.0" encoding="utf-8"?>
<!-- Generator: Adobe Illustrator 23.0.1, SVG Export Plug-In . SVG Version: 6.00 Build 0)  -->
<svg version="1.1" id="图层_1" xmlns="http://www.w3.org/2000/svg" xmlns:xlink="http://www.w3.org/1999/xlink" x="0px" y="0px"
	 viewBox="0 0 512 512" style="enable-background:new 0 0 512 512;" xml:space="preserve">
<style type="text/css">
	.st0{fill:#FFFFFF;}
</style>
<path class="st0" d="M25.7,228.2c0.1-0.2,0.2-0.3,0.3-0.5c0,0.2,0,0.3-0.1,0.5C26,228.2,25.7,228.2,25.7,228.2z M486.3,243.7
	c0-44-7.8-84.5-28.8-122.4C416.5,47.9,343.9,8,258.9,8C119,7.7,40.6,113.2,26.1,227.7c42.4-61.3,117.1-121.4,220.4-125
	c0,0,109.7,0,99.4,105H170c6.4-37.4,18.6-59,34.3-78.9c-75,34.9-121.8,96.1-120.7,188.3c0.8,71.4,50.1,144.8,120.7,172
	c83.4,31.8,192.8,7.2,240.1-21.3V363.3c-80.9,56.5-270.9,60.9-272.3-67.6h314.1L486.3,243.7L486.3,243.7z"/>
</svg>
