<?xml version="1.0" encoding="utf-8"?>
<!-- Generator: Adobe Illustrator 23.0.1, SVG Export Plug-In . SVG Version: 6.00 Build 0)  -->
<svg version="1.1" id="图层_1" xmlns="http://www.w3.org/2000/svg" xmlns:xlink="http://www.w3.org/1999/xlink" x="0px" y="0px"
	 viewBox="0 0 480 512" style="enable-background:new 0 0 480 512;" xml:space="preserve">
<style type="text/css">
	.st0{fill:#FFFFFF;}
</style>
<path class="st0" d="M478.1,235.3c-0.7-4.5-1.4-7.1-1.4-7.1s-1.8,2-4.7,5.9c-0.9-10.7-2.8-21.2-5.8-31.6
	c-3.7-12.9-8.5-25.4-14.5-37.4c-3.8-8-8.2-15.6-13.3-22.8c-1.8-2.7-3.7-5.4-5.6-7.9c-8.8-14.4-19-23.3-30.7-40
	c-7.6-12.8-12.9-26.9-15.4-41.6c-3.2,8.9-5.7,18-7.4,27.3c-12.1-12.2-22.5-20.8-28.9-26.7C319.4,24.2,323,9.1,323,9.1
	S264.7,74.2,289.9,142c8.7,23,23.8,43.1,43.4,57.9c24.4,20.2,50.8,36,64.7,76.6c-11.2-21.3-28.1-39.2-48.8-51.5
	c6.2,14.7,9.4,30.6,9.3,46.5c0,61-49.6,110.5-110.6,110.4c-8.3,0-16.5-0.9-24.5-2.8c-9.5-1.8-18.7-4.9-27.4-9.3
	c-12.9-7.8-24-18.1-32.8-30.3l-0.2-0.3l2,0.7c4.6,1.6,9.2,2.8,14,3.7c18.7,4,38.3,1.7,55.6-6.6c17.5-9.7,28-16.9,36.6-14h0.2
	c8.4,2.7,15-5.5,9-14c-10.4-13.4-27.4-20-44.2-17c-17.5,2.5-33.5,15-56.4,2.9c-1.5-0.8-2.9-1.6-4.3-2.5c-1.6-0.9,4.9,1.3,3.4,0.3
	c-5-2.5-9.8-5.4-14.4-8.6c-0.3-0.3,3.5,1.1,3.1,0.8c-5.9-4-11-9.2-15-15.2c-4.1-7.4-4.5-16.4-1-24.1c2.1-3.8,5.4-6.9,9.3-8.7
	c3,1.5,4.8,2.6,4.8,2.6s-1.3-2.5-2.1-3.8c0.3-0.1,0.5,0,0.8-0.2c2.6,1.1,8.3,4,11.4,5.8c2.1,1.1,3.8,2.7,5.2,4.7c0,0,1-0.5,0.3-2.7
	c-1.1-2.7-2.9-5-5.4-6.6h0.2c2.3,1.2,4.5,2.6,6.6,4.1c1.9-4.4,2.8-9.2,2.6-14c0.2-2.6-0.2-5.3-1.1-7.8c-0.8-1.6,0.5-2.2,1.9-0.5
	c-0.2-1.3-0.7-2.5-1.2-3.7v-0.1c0,0,0.8-1.1,1.2-1.5c1-1,2.1-1.9,3.4-2.7c7.2-4.5,14.8-8.4,22.7-11.6c6.4-2.8,11.7-4.9,12.8-5.6
	c1.6-1,3.1-2.2,4.5-3.5c5.3-4.5,9-10.8,10.2-17.7c0.1-0.9,0.2-1.8,0.3-2.8v-1.5c-0.9-3.5-6.9-6.1-38.4-9.1
	c-11.1-1.8-20-10.1-22.5-21.1v-0.1c6-15.7,16.8-29.1,30.8-38.3c0.8-0.7-3.2,0.2-2.4-0.5c2.7-1.3,5.4-2.5,8.2-3.5
	c1.4-0.6-6-3.4-12.6-2.7c-4,0.2-8,1.2-11.7,2.8c1.6-1.3,6.2-3.1,5.1-3.1c-8.4,1.6-16.5,4.7-23.9,9c0-0.8,0.1-1.5,0.5-2.2
	c-5.9,2.5-11,6.5-15,11.5c0.1-0.9,0.2-1.8,0.2-2.7c-2.7,2-5.2,4.3-7.3,6.9l-0.1,0.1c-17.4-6.7-36.3-8.3-54.6-4.7l-0.2-0.1h0.2
	c-3.8-3.1-7.1-6.7-9.7-10.9l-0.2,0.1L86,99c-1.2-1.8-2.4-3.8-3.7-6c-0.9-1.6-1.8-3.4-2.7-5.2c0-0.1-0.1-0.2-0.2-0.2
	c-0.4,0-0.6,1.7-0.9,1.3v-0.1c-3.2-8.3-4.7-17.2-4.4-26.2l-0.2,0.1c-5.1,3.5-9,8.6-11.1,14.5c-0.9,2.1-1.6,3.3-2.2,4.5v-0.5
	c0.1-1.1,0.6-3.3,0.5-3.1s-0.2,0.3-0.3,0.4c-1.5,1.7-2.9,3.7-3.9,5.8c-0.9,1.9-1.7,3.9-2.3,5.9c-0.1,0.3,0-0.3,0-1s0.1-2,0-1.7
	l-0.3,0.7c-6.7,14.9-10.9,30.8-12.4,47.1c-0.4,2.8-0.6,5.6-0.5,8.3v0.2c-4.8,5.2-9,11-12.7,17.1c-12.1,20.4-21.1,42.5-26.8,65.6
	c4-8.8,8.8-17.2,14.3-25.1C5.5,228.5,0,257.4,0,286.6c1.8-8.6,4.2-17,7-25.3c-1.7,34.5,4.9,68.9,19.4,100.3
	c19.4,43.5,51.6,80,92.3,104.7c16.6,11.2,34.7,19.9,53.8,25.8c2.5,0.9,5.1,1.8,7.7,2.7c-0.8-0.3-1.6-0.7-2.4-1
	c22.6,6.8,46.2,10.3,69.8,10.3c83.7,0,111.3-31.9,113.8-35c4.1-3.7,7.5-8.2,9.9-13.3c1.6-0.7,3.2-1.4,4.9-2.1l1-0.5l1.9-0.9
	c12.6-5.9,24.5-13.4,35.3-22.1c16.3-11.7,27.9-28.7,32.9-48.1c3-7.1,3.1-15,0.4-22.2c0.9-1.4,1.7-2.8,2.7-4.3
	c18-28.9,28.2-61.9,29.6-95.9v-2.8C480,249.6,479.4,242.4,478.1,235.3L478.1,235.3z M179.1,137.7c-0.4,1.1-0.9,2.3-1.3,3.5
	C178.2,140,178.6,138.9,179.1,137.7z"/>
</svg>
