<svg xmlns="http://www.w3.org/2000/svg" width="139.91" height="28.8" viewBox="0 0 139.91 28.8"><defs><style>.a{fill:#354656;}</style></defs><title>会员作品</title><path class="a" d="M197.64,142.92l-.74-.53h22l-.74.53,5.58,8.59h-4.13v3.26a1,1,0,0,0-.52-.79,1.82,1.82,0,0,0-.69-.17H196.93v-2.3h-4.84Zm26,18.77a1.19,1.19,0,0,0-.54-.8,1.67,1.67,0,0,0-.67-.16H202.88L199.65,167,215,165.67,214,163h5l.84,2.26,1.54,4.12,1.15,1.45h-5.68l-.71-1.93-22.41,1.88v-3.27l3.43-6.76h-5.07V156.6l1,.81h30.51ZM198,150.5h19.83l-2.92-4.66H200.83l-2.89,4.61Z" transform="translate(-192.09 -142.2)"/><path class="a" d="M259.79,142.2v9.6H228.68v-8.45l-.47-1.15Zm-.23,11.09v12.43h-5.07l.84-1.35v-7.82H233.22v9.22H229V154.15l-.6-.86ZM228.41,171v-4l1.11.82h6.86l4.33-7.44-.5-1.49h6.21L239.94,171Zm27.08-22.47v-3H233v3Zm-4.23,22.23-.1,0H248l-3.77-7.63h5.88l-.47,1.48,1.68,3h7.19l1.08-.86v4.08Z" transform="translate(-192.09 -142.2)"/><path class="a" d="M271.19,171h-4.31V153.57h-2.35l3.09-10-.6-1h5l-2.22,7.49h1.35Zm11.69-.24h-4.27V148.53H277.4l-1.34,4.61h-4.34l3.13-10-.61-.91h5l-.9,3h17.2v4.22a1.07,1.07,0,0,0-.5-.76,1.52,1.52,0,0,0-.68-.2H282.88V154h12.83v4.27a1.11,1.11,0,0,0-.53-.79,1.7,1.7,0,0,0-.68-.17H282.88V163h12.83v4.23a1.18,1.18,0,0,0-.53-.77,1.46,1.46,0,0,0-.68-.19H282.88Z" transform="translate(-192.09 -142.2)"/><path class="a" d="M315.84,156.93v13.83H301V158.08l-.47-1.15Zm13.81-14.54V155.3H303.44V143.54l-.47-1.15ZM311.57,160.2h-6.28v7.29h6.28Zm13.78-14.5H307.74V152h17.61ZM332,156.93v13.83H317.15V158.08l-.47-1.15Zm-4.3,3.27h-6.25v7.29h6.25Z" transform="translate(-192.09 -142.2)"/></svg>