<svg xmlns="http://www.w3.org/2000/svg" viewBox="0 0 241.54 15"><defs><style>.a{fill:#344555;}</style></defs><title>社团负责人及主要成员联系方式</title><path class="a" d="M282.66,280.6H280.6v-5l-.64,1.11h-1.82l4-7h-3.5v-2l.46.38h1.68v-1.3l-.29-.45h2.34v1.75H285L282.74,272l1.51-.55.47-.7v2.35l-.76.29.94,3.1h-1.53l-.71-2.31Zm10.53-7.92a.5.5,0,0,0-.25-.4.72.72,0,0,0-.33-.08h-2.47v6.69h3.05V281a.46.46,0,0,0-.25-.35.88.88,0,0,0-.33-.08H285v-2.07l.48.41h2.61V272.2H285v-2l.48.4h2.61v-3.79l-.29-.45h2.35v4.24h3.05Z" transform="translate(-278.14 -266.15)"/><path class="a" d="M310.25,281.15a.53.53,0,0,0-.25-.37.75.75,0,0,0-.33-.09H296V266.15l.52.41h13.74Zm-12.2-2.33H308.2V268.43H298.05Zm9.58-6.31a.53.53,0,0,0-.25-.37.75.75,0,0,0-.33-.09h-.56v6.48a.6.6,0,0,0-.26-.41.68.68,0,0,0-.32-.09h-3.18v-2l.48.41h1.21v-4.35h-.92L301,278.1h-2.36l2.57-5.93-.08-.12h-2.54V270l.5.38h5.34v-.93l-.29-.46h2.36v1.39h1.14Z" transform="translate(-278.14 -266.15)"/><path class="a" d="M318,280.84l-2.62,0,0,0h-2.29v-2l.5.38h3L319,276v-2.5l-.29-.46H321v3.51l-2.72,3.81Zm-2.5-3.6h-2.06v-7l-.29-.29h10l.58-1.08h-10l1.16-2.16-.37-.31h2.62l-.47.84h10.21l-1.4,2.71h2.13v7.29h-2.06v-5.66H315.5Zm5.56-.65h2.51l-.29.48,1.25,2.13h3l.5-.4v2.06H325.5v0h-2Z" transform="translate(-278.14 -266.15)"/><path class="a" d="M334.9,280.74h-4.42v-2.06l.5.4,2.64,0,3.49-2.11v-.39l-.29-.48h2.35l0,1.37h1.24l-.29.43,1.5,1.13h3.39l.5-.41v2.09h-5l-2.35-2.09Zm10.17-11.26a.56.56,0,0,0-.26-.39.74.74,0,0,0-.32-.09h-5.26v.77h5.44v1.78a.55.55,0,0,0-.25-.4.79.79,0,0,0-.32-.08h-4.87v.72h6.29V274a.67.67,0,0,0-.25-.43.61.61,0,0,0-.33-.12H330.56v-2l.5.41h6.1v-.72h-5.79v-1.71l.5.41h5.29V269H331v-2.06l.48.41h5.7v-.29l-.29-.48h2.36v.77h5.84Zm-13.46,5.14-.23-.58h13.14v4.2h-2.07v-2.52h-8.78v2.64h-2.06Z" transform="translate(-278.14 -266.15)"/><path class="a" d="M351.29,280.52h-3.05v-2l.49.41h1l5.53-12.53h2.24l-2,4.52h1l4.38,8h1.72v2l-.48-.41h-2.62L355,272.1Z" transform="translate(-278.14 -266.15)"/><path class="a" d="M368.87,280.93h-3.2v-2l.49.41h.62l1.47-10.87h-1.41v-2l.5.41h11.87v1.63l-2.8,2.83,3.28,0v1.65l-3.41,4,2.14,2.3h1.22l.5-.38v2.06H377l-2.11-2.32-2,2.37h-3v-2.06l.5.41h1.17l1.94-2.28-3.61-4Zm3.68-8,2.3,2.47,2.09-2.44h-3.43v-1.66h.08l-.08,0,2.87-2.81h-5.95l-.57,4.46Z" transform="translate(-278.14 -266.15)"/><path class="a" d="M397.23,270.66a.51.51,0,0,0-.26-.37.68.68,0,0,0-.32-.09h-5.58v3.08h5.69v2.35a.48.48,0,0,0-.25-.37.75.75,0,0,0-.33-.09h-5.11v3.51h6.46V281a.51.51,0,0,0-.26-.37.68.68,0,0,0-.32-.09H383.18v-2.3l.51.41H389v-3.51h-5v-2.3l.52.41H389V270.2h-5.46v-2.3l.48.41h4.86l-.45-1.54-.41-.48h2.56l.55,2h6.09Z" transform="translate(-278.14 -266.15)"/><path class="a" d="M415.34,268.86a.57.57,0,0,0-.25-.37.68.68,0,0,0-.32-.09H411v.68h3.81v4.58h-14v-4l-.23-.57h4.05v-.68h-4.37v-2.06l.5.38h14.57Zm-1.71,5.38v.43h1.71v2.13a.65.65,0,0,0-.25-.4.6.6,0,0,0-.32-.1h-1.14v1.61l-2.88.84,2.08.55h2l.5-.41V281h-2.7a.1.1,0,0,1-.08,0l-4.76-1.34-4.75,1.34-.08,0h-2.7v-2.07l.5.41h1.94l2.09-.58-2.87-.81V276.3h-1.66v-2l.5.41h1.16v-.43h2v.43h7.6v-.43ZM402.89,272h1.75v-1.32h-1.75Zm8.68,4.85v-.58H404v.58l3.79,1.05Zm-4.59-7.8h1.73v-.68H407Zm0,2.95h1.73v-1.32H407Zm5.82-1.32H411V272h1.76Z" transform="translate(-278.14 -266.15)"/><path class="a" d="M432,270.44a.49.49,0,0,0-.24-.37.88.88,0,0,0-.32-.08h-3.3l1.16,3.67,2.55-1.63v3.07a.51.51,0,0,0-.24-.38.6.6,0,0,0-.32-.1l-1.41.91,1.06,3.36,1.75,0V281a.56.56,0,0,0-.26-.4.79.79,0,0,0-.32-.08l-.64,0h-.71l-1.35,0v0h-.34l-1.17-3.72-2.48,1.61v-3l.49.41,1.41-.89L425.74,270h-5.06l-.17,2.16h4.11V281a.53.53,0,0,0-.25-.37,1,1,0,0,0-.33-.08h-3.4v-2l.49.41h1.43v-5.14h-2.17l-.5,6.77h-2.06l.72-10.56.15-2.31.51.41h5.94l-.41-1.29-.29-.48H427l.57,1.77h1.38v-1l-.29-.48H431v1.46h1Z" transform="translate(-278.14 -266.15)"/><path class="a" d="M450.25,266.46v4.8H435.36V267l-.23-.58Zm-.12,5.54v6.22h-2.42l.4-.67v-3.91H437.53v4.6h-2v-5.8l-.28-.44Zm-14.9,8.86v-2l.53.41H439l2.07-3.72-.24-.74h3l-3.11,6.07Zm13-11.23v-1.49H437.41v1.49Zm-2,11.11-.05,0h-1.49l-1.8-3.82h2.81l-.22.74.8,1.49h3.44l.52-.43v2Z" transform="translate(-278.14 -266.15)"/><path class="a" d="M462.69,280.62h-3v-2.06l.47.4H461l1.12-4.29h-2.33v-2l.52.41h2.23l.66-2.57h-3.38v-2l.07.07a.55.55,0,0,0-.24-.34,1.09,1.09,0,0,0-.32-.07h-.53v8.23l1-.21v2.49a.48.48,0,0,0-.25-.39.42.42,0,0,0-.32,0l-.45.1v2.33h-2.05v-1.9l-4.11.84v-2.4l.51.36.29-.05v-9.36h-.72v-1.82l.5.36h6.68v1.87l.45.34h.74l-.16-1.66-.25-.53h2.15l.24,2.19h1.79l.25-2.21h2.18l-.28.67-.16,1.54h.79V271a.58.58,0,0,0-.27-.39.75.75,0,0,0-.33-.09h-2l-.59,2.57h3.1v2.11a.56.56,0,0,0-.26-.4.84.84,0,0,0-.33-.08h-2l1.47,4.27h1.19v2.11a.61.61,0,0,0-.24-.36.64.64,0,0,0-.3-.09h-2.17l-1.27-4.13ZM455.49,270h1.25v-2h-1.25Zm0,3.24h1.25V271.5h-1.25Zm0,3.74,1.25-.26v-2h-1.25Z" transform="translate(-278.14 -266.15)"/><path class="a" d="M480.61,272.36h2.46l1.27,3.56h-5.57v5.16h-3.45V279l.51.39h.88V276l-.06-.09h-5.56v-2.07l.66.41h2.34l1.42-1.27h-4.7l4.35-3.91-4.73.28v-1.82l13.86-.67.45-.67v2.3l-6.4.38-2.86,2.48h1.85l.94-.84L478,270h3.81l-4.89,4.22h4.63l-.53-1.44Zm-10,8.74V279l.49.4h1.24l.93-2-.37-.29h2.75l-1.79,4Zm9.14-4.1h2.75l-.37.28.93,2.16h1.08l.5-.4v2.06h-3.17Z" transform="translate(-278.14 -266.15)"/><path class="a" d="M502.57,271a.58.58,0,0,0-.25-.4,1.11,1.11,0,0,0-.31-.1l-9.28,0-.5,2.52H502v7.56h-4.49L497,281v-2h2.91v-4.28h-8l-1.17,6h-2.5l0,0h-.34v-2l.52.41h.4l1.72-8.5-3.06,0v-2l.5.41,6.06,0v-2l-.28-.46h2.34v2.5l6.45,0Z" transform="translate(-278.14 -266.15)"/><path class="a" d="M519.68,270.83a.61.61,0,0,0-.26-.39.71.71,0,0,0-.32-.09h-2.78l1.78,8.54h1.52V281a.57.57,0,0,0-.25-.37.71.71,0,0,0-.32-.09h-3L514,270.35h-8.69V268l.52.41h7.78l-.34-1.65-.29-.48h2.54l.44,2.13H517v-1.08l-.31-.45H519v1.53h.64Zm-6.26,3.65a.57.57,0,0,0-.25-.39.71.71,0,0,0-.31-.09h-2.59v4.32h4.12v2.32a.5.5,0,0,0-.25-.37.88.88,0,0,0-.33-.08h-8.54v-2.28l.52.41h2.42V274h-2.62v-2.31l.5.43h7.33Z" transform="translate(-278.14 -266.15)"/></svg>